<?xml version="1.0" encoding="UTF-8" standalone="no"?>
<!DOCTYPE svg PUBLIC "-//W3C//DTD SVG 1.1//EN"
 "http://www.w3.org/Graphics/SVG/1.1/DTD/svg11.dtd">
<!-- Generated by graphviz version 2.38.0 (20140413.2041)
 -->
<!-- Title: %3 Pages: 1 -->
<svg width="867pt" height="1027pt"
 viewBox="0.00 0.00 866.81 1027.49" xmlns="http://www.w3.org/2000/svg" xmlns:xlink="http://www.w3.org/1999/xlink">
<g id="graph0" class="graph" transform="scale(1 1) rotate(0) translate(4 1023.49)">
<title>%3</title>
<polygon fill="white" stroke="none" points="-4,4 -4,-1023.49 862.811,-1023.49 862.811,4 -4,4"/>
<!-- 0 -->
<g id="node1" class="node"><title>0</title>
<ellipse fill="chartreuse" stroke="black" cx="765" cy="-977.142" rx="38.2082" ry="38.2082"/>
<ellipse fill="none" stroke="black" cx="765" cy="-977.142" rx="42.1937" ry="42.1937"/>
<text text-anchor="middle" x="765" y="-973.442" font-family="Times,serif" font-size="14.00">START</text>
</g>
<!-- 2 -->
<g id="node2" class="node"><title>2</title>
<polygon fill="powderblue" stroke="black" points="852.615,-879.795 808.807,-897.795 721.193,-897.795 677.385,-879.795 721.193,-861.795 808.807,-861.795 852.615,-879.795"/>
<text text-anchor="middle" x="765" y="-876.095" font-family="Times,serif" font-size="14.00">CREATE price 10</text>
</g>
<!-- 0&#45;&gt;2 -->
<g id="edge1" class="edge"><title>0&#45;&gt;2</title>
<path fill="none" stroke="black" d="M765,-934.598C765,-925.666 765,-916.441 765,-908.207"/>
<polygon fill="black" stroke="black" points="768.5,-908.061 765,-898.061 761.5,-908.062 768.5,-908.061"/>
</g>
<!-- 3 -->
<g id="node4" class="node"><title>3</title>
<polygon fill="powderblue" stroke="black" points="858.623,-806.795 811.811,-824.795 718.189,-824.795 671.377,-806.795 718.189,-788.795 811.811,-788.795 858.623,-806.795"/>
<text text-anchor="middle" x="765" y="-803.095" font-family="Times,serif" font-size="14.00">CREATE random 0</text>
</g>
<!-- 2&#45;&gt;3 -->
<g id="edge2" class="edge"><title>2&#45;&gt;3</title>
<path fill="none" stroke="black" d="M765,-861.608C765,-853.584 765,-843.842 765,-834.864"/>
<polygon fill="black" stroke="black" points="768.5,-834.824 765,-824.824 761.5,-834.824 768.5,-834.824"/>
</g>
<!-- 1 -->
<g id="node3" class="node"><title>1</title>
<ellipse fill="firebrick" stroke="black" cx="297" cy="-32.5975" rx="28.6832" ry="28.6832"/>
<ellipse fill="none" stroke="black" cx="297" cy="-32.5975" rx="32.6952" ry="32.6952"/>
<text text-anchor="middle" x="297" y="-28.8975" font-family="Times,serif" font-size="14.00">END</text>
</g>
<!-- 4 -->
<g id="node5" class="node"><title>4</title>
<polygon fill="orange" stroke="black" points="780,-745.795 738,-745.795 738,-721.795 780,-721.795 792,-733.795 780,-745.795"/>
<text text-anchor="middle" x="765" y="-730.095" font-family="Times,serif" font-size="14.00">haggle</text>
</g>
<!-- 3&#45;&gt;4 -->
<g id="edge3" class="edge"><title>3&#45;&gt;4</title>
<path fill="none" stroke="black" d="M765,-788.608C765,-780.584 765,-770.842 765,-761.864"/>
<polygon fill="black" stroke="black" points="768.5,-761.824 765,-751.824 761.5,-761.824 768.5,-761.824"/>
</g>
<!-- 5 -->
<g id="node6" class="node"><title>5</title>
<g id="a_node6"><a xlink:title="Do you want to haggle?">
<polygon fill="none" stroke="black" points="716,-678.795 662,-678.795 662,-642.795 716,-642.795 716,-678.795"/>
<text text-anchor="middle" x="689" y="-657.095" font-family="Times,serif" font-size="14.00">T[22]</text>
</a>
</g>
</g>
<!-- 4&#45;&gt;5 -->
<g id="edge4" class="edge"><title>4&#45;&gt;5</title>
<path fill="none" stroke="black" d="M746.603,-715.608C736.987,-706.625 725.066,-695.488 714.568,-685.681"/>
<polygon fill="black" stroke="black" points="716.925,-683.093 707.228,-678.824 712.146,-688.208 716.925,-683.093"/>
</g>
<!-- 6 -->
<g id="node7" class="node"><title>6</title>
<polygon fill="cornsilk" stroke="black" points="624,-605.795 594.205,-571.295 653.795,-571.295 624,-605.795"/>
<text text-anchor="middle" x="624" y="-579.095" font-family="Times,serif" font-size="14.00">?</text>
</g>
<!-- 5&#45;&gt;6 -->
<g id="edge5" class="edge"><title>5&#45;&gt;6</title>
<path fill="none" stroke="black" d="M674.25,-642.549C664.147,-630.736 650.741,-615.061 640.317,-602.873"/>
<polygon fill="black" stroke="black" points="642.814,-600.408 633.654,-595.083 637.494,-604.958 642.814,-600.408"/>
</g>
<!-- 8 -->
<g id="node8" class="node"><title>8</title>
<polygon fill="powderblue" stroke="black" points="737.148,-490.795 680.574,-508.795 567.426,-508.795 510.852,-490.795 567.426,-472.795 680.574,-472.795 737.148,-490.795"/>
<text text-anchor="middle" x="624" y="-487.095" font-family="Times,serif" font-size="14.00">RANDOM random 1 10</text>
</g>
<!-- 6&#45;&gt;8 -->
<g id="edge6" class="edge"><title>6&#45;&gt;8</title>
<path fill="none" stroke="black" d="M624,-571.117C624,-558.393 624,-536.653 624,-519.148"/>
<polygon fill="black" stroke="black" points="627.5,-518.913 624,-508.914 620.5,-518.914 627.5,-518.913"/>
<text text-anchor="middle" x="645.5" y="-530.595" font-family="Times,serif" font-size="14.00">Haggle.</text>
</g>
<!-- 16 -->
<g id="node9" class="node"><title>16</title>
<ellipse fill="none" stroke="black" cx="413" cy="-490.795" rx="1.8" ry="1.8"/>
</g>
<!-- 6&#45;&gt;16 -->
<g id="edge7" class="edge"><title>6&#45;&gt;16</title>
<path fill="none" stroke="black" d="M597.293,-571.138C577.54,-563.196 550.014,-552.006 526,-541.795 487.963,-525.621 443.173,-505.471 423.341,-496.491"/>
<polygon fill="black" stroke="black" points="424.661,-493.247 414.108,-492.3 421.767,-499.621 424.661,-493.247"/>
<text text-anchor="middle" x="573" y="-530.595" font-family="Times,serif" font-size="14.00">Accept the price.</text>
</g>
<!-- 9 -->
<g id="node10" class="node"><title>9</title>
<polygon fill="cornsilk" stroke="black" points="638,-435.795 561.919,-417.795 638,-399.795 714.081,-417.795 638,-435.795"/>
<text text-anchor="middle" x="638" y="-414.095" font-family="Times,serif" font-size="14.00">rand &lt; price</text>
</g>
<!-- 8&#45;&gt;9 -->
<g id="edge8" class="edge"><title>8&#45;&gt;9</title>
<path fill="none" stroke="black" d="M627.389,-472.608C629.012,-464.378 630.991,-454.34 632.799,-445.172"/>
<polygon fill="black" stroke="black" points="636.238,-445.823 634.739,-435.335 629.37,-444.469 636.238,-445.823"/>
</g>
<!-- 17 -->
<g id="node16" class="node"><title>17</title>
<polygon fill="orange" stroke="black" points="233,-429.795 191,-429.795 191,-405.795 233,-405.795 245,-417.795 233,-429.795"/>
<text text-anchor="middle" x="218" y="-414.095" font-family="Times,serif" font-size="14.00">main</text>
</g>
<!-- 16&#45;&gt;17 -->
<g id="edge16" class="edge"><title>16&#45;&gt;17</title>
<path fill="none" stroke="black" d="M411.755,-489.342C399.992,-485.059 307.698,-451.454 254.847,-432.211"/>
<polygon fill="black" stroke="black" points="255.746,-428.814 245.152,-428.681 253.351,-435.391 255.746,-428.814"/>
</g>
<!-- 10 -->
<g id="node11" class="node"><title>10</title>
<g id="a_node11"><a xlink:title="It worked.">
<polygon fill="none" stroke="black" points="737,-348.795 683,-348.795 683,-312.795 737,-312.795 737,-348.795"/>
<text text-anchor="middle" x="710" y="-327.095" font-family="Times,serif" font-size="14.00">T[10]</text>
</a>
</g>
</g>
<!-- 9&#45;&gt;10 -->
<g id="edge9" class="edge"><title>9&#45;&gt;10</title>
<path fill="none" stroke="black" d="M650.214,-402.376C660.776,-389.907 676.282,-371.601 688.856,-356.757"/>
<polygon fill="black" stroke="black" points="691.696,-358.818 695.489,-348.926 686.355,-354.294 691.696,-358.818"/>
<text text-anchor="middle" x="685" y="-370.595" font-family="Times,serif" font-size="14.00">Y</text>
</g>
<!-- 13 -->
<g id="node12" class="node"><title>13</title>
<g id="a_node12"><a xlink:title="It did not work.">
<polygon fill="none" stroke="black" points="665,-348.795 611,-348.795 611,-312.795 665,-312.795 665,-348.795"/>
<text text-anchor="middle" x="638" y="-327.095" font-family="Times,serif" font-size="14.00">T[16]</text>
</a>
</g>
</g>
<!-- 9&#45;&gt;13 -->
<g id="edge10" class="edge"><title>9&#45;&gt;13</title>
<path fill="none" stroke="black" d="M638,-399.594C638,-387.958 638,-372.343 638,-359.032"/>
<polygon fill="black" stroke="black" points="641.5,-358.97 638,-348.97 634.5,-358.97 641.5,-358.97"/>
<text text-anchor="middle" x="643" y="-370.595" font-family="Times,serif" font-size="14.00">N</text>
</g>
<!-- 11 -->
<g id="node13" class="node"><title>11</title>
<polygon fill="powderblue" stroke="black" points="749.588,-252.795 715.794,-270.795 648.206,-270.795 614.412,-252.795 648.206,-234.795 715.794,-234.795 749.588,-252.795"/>
<text text-anchor="middle" x="682" y="-249.095" font-family="Times,serif" font-size="14.00">SET price &#45; 1</text>
</g>
<!-- 10&#45;&gt;11 -->
<g id="edge11" class="edge"><title>10&#45;&gt;11</title>
<path fill="none" stroke="black" d="M703.646,-312.549C700.174,-303.124 695.796,-291.241 691.887,-280.632"/>
<polygon fill="black" stroke="black" points="695.07,-279.146 688.328,-270.972 688.501,-281.566 695.07,-279.146"/>
</g>
<!-- 14 -->
<g id="node15" class="node"><title>14</title>
<ellipse fill="none" stroke="black" cx="769" cy="-252.795" rx="1.8" ry="1.8"/>
</g>
<!-- 13&#45;&gt;14 -->
<g id="edge14" class="edge"><title>13&#45;&gt;14</title>
<path fill="none" stroke="black" d="M665.086,-316.896C668.087,-315.499 671.105,-314.108 674,-312.795 711.522,-295.774 729.633,-304.694 759,-275.795 762.129,-272.716 764.37,-268.479 765.927,-264.545"/>
<polygon fill="black" stroke="black" points="769.338,-265.355 768.817,-254.773 762.625,-263.37 769.338,-265.355"/>
</g>
<!-- 12 -->
<g id="node14" class="node"><title>12</title>
<ellipse fill="none" stroke="black" cx="766" cy="-160.795" rx="1.8" ry="1.8"/>
</g>
<!-- 11&#45;&gt;12 -->
<g id="edge12" class="edge"><title>11&#45;&gt;12</title>
<path fill="none" stroke="black" d="M698.196,-234.442C716.303,-215.041 744.858,-184.447 758.396,-169.942"/>
<polygon fill="black" stroke="black" points="760.971,-172.313 765.235,-162.614 755.853,-167.537 760.971,-172.313"/>
</g>
<!-- 12&#45;&gt;4 -->
<g id="edge13" class="edge"><title>12&#45;&gt;4</title>
<path fill="none" stroke="black" d="M766.642,-162.627C771.555,-169.078 803,-211.925 803,-251.795 803,-661.795 803,-661.795 803,-661.795 803,-678.266 794.952,-694.614 786.264,-707.464"/>
<polygon fill="black" stroke="black" points="783.283,-705.612 780.237,-715.759 788.946,-709.726 783.283,-705.612"/>
</g>
<!-- 14&#45;&gt;4 -->
<g id="edge15" class="edge"><title>14&#45;&gt;4</title>
<path fill="none" stroke="black" d="M768.901,-254.865C768.285,-261.629 765,-299.141 765,-329.795 765,-661.795 765,-661.795 765,-661.795 765,-676.144 765,-692.123 765,-705.284"/>
<polygon fill="black" stroke="black" points="761.5,-705.579 765,-715.579 768.5,-705.579 761.5,-705.579"/>
</g>
<!-- 18 -->
<g id="node17" class="node"><title>18</title>
<g id="a_node17"><a xlink:title="One, two, don&#39;t know what to do.">
<polygon fill="none" stroke="black" points="245,-348.795 191,-348.795 191,-312.795 245,-312.795 245,-348.795"/>
<text text-anchor="middle" x="218" y="-327.095" font-family="Times,serif" font-size="14.00">T[32]</text>
</a>
</g>
</g>
<!-- 17&#45;&gt;18 -->
<g id="edge17" class="edge"><title>17&#45;&gt;18</title>
<path fill="none" stroke="black" d="M218,-399.594C218,-387.958 218,-372.343 218,-359.032"/>
<polygon fill="black" stroke="black" points="221.5,-358.97 218,-348.97 214.5,-358.97 221.5,-358.97"/>
</g>
<!-- 19 -->
<g id="node18" class="node"><title>19</title>
<polygon fill="cornsilk" stroke="black" points="218,-275.795 188.205,-241.295 247.795,-241.295 218,-275.795"/>
<text text-anchor="middle" x="218" y="-249.095" font-family="Times,serif" font-size="14.00">?</text>
</g>
<!-- 18&#45;&gt;19 -->
<g id="edge18" class="edge"><title>18&#45;&gt;19</title>
<path fill="none" stroke="black" d="M218,-312.549C218,-304.658 218,-295.044 218,-285.897"/>
<polygon fill="black" stroke="black" points="221.5,-285.886 218,-275.886 214.5,-285.886 221.5,-285.886"/>
</g>
<!-- 21 -->
<g id="node19" class="node"><title>21</title>
<g id="a_node19"><a xlink:title="The fish is ${price} gold.">
<polygon fill="none" stroke="black" points="324,-178.795 270,-178.795 270,-142.795 324,-142.795 324,-178.795"/>
<text text-anchor="middle" x="297" y="-157.095" font-family="Times,serif" font-size="14.00">T[26]</text>
</a>
</g>
</g>
<!-- 19&#45;&gt;21 -->
<g id="edge19" class="edge"><title>19&#45;&gt;21</title>
<path fill="none" stroke="black" d="M238.317,-241.258C250.269,-234.23 264.959,-224.042 275,-211.795 280.642,-204.912 285.104,-196.357 288.493,-188.28"/>
<polygon fill="black" stroke="black" points="291.812,-189.4 292.102,-178.809 285.27,-186.908 291.812,-189.4"/>
<text text-anchor="middle" x="347" y="-200.595" font-family="Times,serif" font-size="14.00">How much is the fish?</text>
</g>
<!-- 24 -->
<g id="node20" class="node"><title>24</title>
<g id="a_node20"><a xlink:title="This was very exhausting.Never again!">
<polygon fill="none" stroke="black" points="513,-178.795 459,-178.795 459,-142.795 513,-142.795 513,-178.795"/>
<text text-anchor="middle" x="486" y="-157.095" font-family="Times,serif" font-size="14.00">T[37]</text>
</a>
</g>
</g>
<!-- 19&#45;&gt;24 -->
<g id="edge20" class="edge"><title>19&#45;&gt;24</title>
<path fill="none" stroke="black" d="M240.195,-250.12C277.293,-246.698 353.671,-236.979 413,-211.795 428.891,-205.049 444.898,-194.591 457.857,-184.979"/>
<polygon fill="black" stroke="black" points="460.08,-187.685 465.901,-178.832 455.83,-182.123 460.08,-187.685"/>
<text text-anchor="middle" x="502" y="-200.595" font-family="Times,serif" font-size="14.00">Faster Harder Scooter.</text>
</g>
<!-- 27 -->
<g id="node21" class="node"><title>27</title>
<g id="a_node21"><a xlink:title="The summer continues.">
<polygon fill="none" stroke="black" points="199,-178.795 145,-178.795 145,-142.795 199,-142.795 199,-178.795"/>
<text text-anchor="middle" x="172" y="-157.095" font-family="Times,serif" font-size="14.00">T[21]</text>
</a>
</g>
</g>
<!-- 19&#45;&gt;27 -->
<g id="edge21" class="edge"><title>19&#45;&gt;27</title>
<path fill="none" stroke="black" d="M204.211,-241.039C195.834,-233.721 185.689,-223.3 180,-211.795 176.571,-204.86 174.554,-196.785 173.384,-189.173"/>
<polygon fill="black" stroke="black" points="176.861,-188.773 172.259,-179.23 169.905,-189.56 176.861,-188.773"/>
<text text-anchor="middle" x="227.5" y="-200.595" font-family="Times,serif" font-size="14.00">Endless summer.</text>
</g>
<!-- 30 -->
<g id="node22" class="node"><title>30</title>
<g id="a_node22"><a xlink:title="Sorry, you don&#39;t see any animals.">
<polygon fill="none" stroke="black" points="120,-178.795 66,-178.795 66,-142.795 120,-142.795 120,-178.795"/>
<text text-anchor="middle" x="93" y="-157.095" font-family="Times,serif" font-size="14.00">T[33]</text>
</a>
</g>
</g>
<!-- 19&#45;&gt;30 -->
<g id="edge22" class="edge"><title>19&#45;&gt;30</title>
<path fill="none" stroke="black" d="M197.797,-252.474C167.729,-252.247 111.966,-246.796 86,-211.795 81.1529,-205.261 80.7405,-196.893 82.1844,-188.879"/>
<polygon fill="black" stroke="black" points="85.6018,-189.648 84.8119,-179.083 78.8407,-187.835 85.6018,-189.648"/>
<text text-anchor="middle" x="128.5" y="-200.595" font-family="Times,serif" font-size="14.00">Move your ass.</text>
</g>
<!-- 22 -->
<g id="node23" class="node"><title>22</title>
<ellipse fill="none" stroke="black" cx="297" cy="-103.995" rx="1.8" ry="1.8"/>
</g>
<!-- 21&#45;&gt;22 -->
<g id="edge23" class="edge"><title>21&#45;&gt;22</title>
<path fill="none" stroke="black" d="M297,-142.756C297,-134.069 297,-123.752 297,-116.099"/>
<polygon fill="black" stroke="black" points="300.5,-115.958 297,-105.958 293.5,-115.958 300.5,-115.958"/>
</g>
<!-- 25 -->
<g id="node24" class="node"><title>25</title>
<ellipse fill="none" stroke="black" cx="552" cy="-103.995" rx="1.8" ry="1.8"/>
</g>
<!-- 24&#45;&gt;25 -->
<g id="edge25" class="edge"><title>24&#45;&gt;25</title>
<path fill="none" stroke="black" d="M506.521,-142.756C518.706,-132.639 533.552,-120.312 542.893,-112.556"/>
<polygon fill="black" stroke="black" points="545.383,-115.039 550.84,-105.958 540.911,-109.653 545.383,-115.039"/>
</g>
<!-- 28 -->
<g id="node25" class="node"><title>28</title>
<ellipse fill="none" stroke="black" cx="73" cy="-103.995" rx="1.8" ry="1.8"/>
</g>
<!-- 27&#45;&gt;28 -->
<g id="edge27" class="edge"><title>27&#45;&gt;28</title>
<path fill="none" stroke="black" d="M144.948,-144.821C124.402,-133.448 97.3106,-118.452 82.9436,-110.499"/>
<polygon fill="black" stroke="black" points="84.5222,-107.372 74.0781,-105.592 81.1321,-113.497 84.5222,-107.372"/>
</g>
<!-- 31 -->
<g id="node26" class="node"><title>31</title>
<ellipse fill="none" stroke="black" cx="43" cy="-103.995" rx="1.8" ry="1.8"/>
</g>
<!-- 30&#45;&gt;31 -->
<g id="edge29" class="edge"><title>30&#45;&gt;31</title>
<path fill="none" stroke="black" d="M77.4538,-142.756C68.6243,-133.079 57.9497,-121.38 50.8451,-113.593"/>
<polygon fill="black" stroke="black" points="53.2041,-110.986 43.8784,-105.958 48.0331,-115.704 53.2041,-110.986"/>
</g>
<!-- 22&#45;&gt;1 -->
<g id="edge24" class="edge"><title>22&#45;&gt;1</title>
<path fill="none" stroke="black" d="M297,-102.014C297,-98.7705 297,-87.9056 297,-75.76"/>
<polygon fill="black" stroke="black" points="300.5,-75.3956 297,-65.3956 293.5,-75.3957 300.5,-75.3956"/>
</g>
<!-- 25&#45;&gt;17 -->
<g id="edge26" class="edge"><title>25&#45;&gt;17</title>
<path fill="none" stroke="black" d="M552.766,-105.681C557.54,-110.033 583,-134.436 583,-159.795 583,-331.795 583,-331.795 583,-331.795 583,-398.595 348.175,-412.92 255.229,-415.974"/>
<polygon fill="black" stroke="black" points="255.026,-412.479 245.136,-416.279 255.237,-419.475 255.026,-412.479"/>
</g>
<!-- 28&#45;&gt;17 -->
<g id="edge28" class="edge"><title>28&#45;&gt;17</title>
<path fill="none" stroke="black" d="M72.1348,-105.659C66.7451,-109.878 38,-133.605 38,-159.795 38,-331.795 38,-331.795 38,-331.795 38,-394.325 127.919,-410.926 180.649,-415.285"/>
<polygon fill="black" stroke="black" points="180.437,-418.779 190.662,-416.004 180.938,-411.797 180.437,-418.779"/>
</g>
<!-- 31&#45;&gt;17 -->
<g id="edge30" class="edge"><title>31&#45;&gt;17</title>
<path fill="none" stroke="black" d="M41.9371,-105.61C35.3154,-109.528 0,-131.739 0,-159.795 0,-331.795 0,-331.795 0,-331.795 0,-362.294 20.3691,-366.93 47,-381.795 88.904,-405.185 144.403,-413.03 180.64,-415.612"/>
<polygon fill="black" stroke="black" points="180.582,-419.115 190.777,-416.233 181.01,-412.128 180.582,-419.115"/>
</g>
</g>
</svg>
